<svg xmlns="http://www.w3.org/2000/svg" viewBox="0 0 540 128" role="img" aria-labelledby="djass-lockup-title djass-lockup-desc">
  <title id="djass-lockup-title">Djass logo lockup</title>
  <desc id="djass-lockup-desc">Djass wordmark with a stylized D mark that blends Django, SaaS, and jazz cues.</desc>
  <defs>
    <linearGradient id="djass-lockup-fill" x1="22" y1="16" x2="108" y2="112" gradientUnits="userSpaceOnUse">
      <stop offset="0" stop-color="#7B82F2" />
      <stop offset="0.54" stop-color="#5E6AD2" />
      <stop offset="1" stop-color="#0F9F8A" />
    </linearGradient>
    <linearGradient id="djass-lockup-shine" x1="42" y1="20" x2="90" y2="108" gradientUnits="userSpaceOnUse">
      <stop offset="0" stop-color="#FFFFFF" stop-opacity="0.38" />
      <stop offset="1" stop-color="#FFFFFF" stop-opacity="0" />
    </linearGradient>
    <filter id="djass-lockup-shadow" x="-18%" y="-18%" width="136%" height="136%" color-interpolation-filters="sRGB">
      <feDropShadow dx="0" dy="10" stdDeviation="10" flood-color="#131826" flood-opacity="0.18" />
    </filter>
  </defs>
  <g>
    <rect width="128" height="128" rx="30" fill="#08090D" />
    <path
      d="M34 26h32.5C84.4 26 98 40.2 98 64s-13.6 38-31.5 38H34V26Zm21 20v36h10.6C73.3 82 78 75.7 78 64s-4.7-18-12.4-18H55Z"
      fill="url(#djass-lockup-fill)"
      filter="url(#djass-lockup-shadow)" />
    <path
      d="M55 46v36h10.6C73.3 82 78 75.7 78 64s-4.7-18-12.4-18H55Z"
      fill="#08090D"
      opacity="0.96" />
    <path d="M42 41c12.7-5.8 26-6.5 39.8-2.1" fill="none" stroke="url(#djass-lockup-shine)" stroke-width="4" stroke-linecap="round" />
    <path d="M47 55h35" fill="none" stroke="#EBEEF8" stroke-width="3.2" stroke-linecap="round" opacity="0.78" />
    <path d="M47 64h35" fill="none" stroke="#EBEEF8" stroke-width="3.2" stroke-linecap="round" opacity="0.78" />
    <path d="M47 73h27" fill="none" stroke="#EBEEF8" stroke-width="3.2" stroke-linecap="round" opacity="0.78" />
    <path d="M82 44v31" fill="none" stroke="#F59E0B" stroke-width="5" stroke-linecap="round" />
    <path d="M82 44c6.8 1 11.5 4.3 13.7 9.5" fill="none" stroke="#F59E0B" stroke-width="5" stroke-linecap="round" />
    <circle cx="77.5" cy="78" r="8" fill="#F59E0B" />
    <path d="M42 95h45" fill="none" stroke="#22D3EE" stroke-width="4" stroke-linecap="round" opacity="0.9" />
  </g>
  <g transform="translate(156 24)">
    <text x="0" y="56" fill="#07080D" font-family="Inter, ui-sans-serif, system-ui, -apple-system, BlinkMacSystemFont, 'Segoe UI', sans-serif" font-size="64" font-weight="800" letter-spacing="0">Djass</text>
    <text x="4" y="91" fill="#5F6673" font-family="Inter, ui-sans-serif, system-ui, -apple-system, BlinkMacSystemFont, 'Segoe UI', sans-serif" font-size="20" font-weight="600" letter-spacing="0">Django SaaS, with swing</text>
  </g>
</svg>
