<svg xmlns="http://www.w3.org/2000/svg" width="1024" height="1024" viewBox="0 0 1024 1024" role="img" aria-labelledby="title desc">
  <title id="title">Djass logo</title>
  <desc id="desc">A generated SaaS project package assembled from modular blocks.</desc>
  <defs>
    <linearGradient id="background" x1="176" y1="104" x2="850" y2="902" gradientUnits="userSpaceOnUse">
      <stop offset="0" stop-color="#052e2b"/>
      <stop offset="0.48" stop-color="#047857"/>
      <stop offset="1" stop-color="#0891b2"/>
    </linearGradient>
    <linearGradient id="glow" x1="236" y1="106" x2="760" y2="850" gradientUnits="userSpaceOnUse">
      <stop offset="0" stop-color="#6ee7b7" stop-opacity="0.62"/>
      <stop offset="0.58" stop-color="#2dd4bf" stop-opacity="0.14"/>
      <stop offset="1" stop-color="#22d3ee" stop-opacity="0.35"/>
    </linearGradient>
    <linearGradient id="topFace" x1="318" y1="180" x2="710" y2="434" gradientUnits="userSpaceOnUse">
      <stop offset="0" stop-color="#ffffff"/>
      <stop offset="1" stop-color="#ecfeff"/>
    </linearGradient>
    <linearGradient id="leftFace" x1="284" y1="344" x2="520" y2="776" gradientUnits="userSpaceOnUse">
      <stop offset="0" stop-color="#dcfce7"/>
      <stop offset="1" stop-color="#a7f3d0"/>
    </linearGradient>
    <linearGradient id="rightFace" x1="512" y1="398" x2="766" y2="744" gradientUnits="userSpaceOnUse">
      <stop offset="0" stop-color="#ccfbf1"/>
      <stop offset="1" stop-color="#67e8f9"/>
    </linearGradient>
  </defs>

  <rect x="64" y="64" width="896" height="896" rx="224" fill="url(#background)"/>
  <rect x="86" y="86" width="852" height="852" rx="202" fill="url(#glow)" opacity="0.72"/>

  <path d="M176 716c118-82 206-128 334-128 139 0 227 43 338 126v100H176V716Z" fill="#022c22" opacity="0.18"/>

  <g>
    <path d="M512 158 760 300 512 444 264 300 512 158Z" fill="url(#topFace)"/>
    <path d="M264 300 512 444v356L264 656V300Z" fill="url(#leftFace)"/>
    <path d="M760 300 512 444v356l248-144V300Z" fill="url(#rightFace)"/>

    <path d="M512 444 264 300 512 158l248 142-248 144Z" fill="none" stroke="#022c22" stroke-opacity="0.1" stroke-width="22" stroke-linejoin="round"/>
    <path d="M512 444v356" fill="none" stroke="#022c22" stroke-opacity="0.1" stroke-width="22" stroke-linecap="round"/>

    <path d="m394 286 82-48 78 45-82 48-78-45Z" fill="#047857"/>
    <path d="m504 350 82-48 82 48-82 48-82-48Z" fill="#0891b2"/>
    <path d="m334 348 78-45 54 31-78 45-54-31Z" fill="#14b8a6"/>

    <path d="m330 462 116 68v44l-116-68v-44Z" fill="#065f46" opacity="0.52"/>
    <path d="m330 554 116 68v44l-116-68v-44Z" fill="#047857" opacity="0.42"/>
    <path d="m578 530 116-68v44l-116 68v-44Z" fill="#0e7490" opacity="0.54"/>
    <path d="m578 622 88-52v44l-88 52v-44Z" fill="#0891b2" opacity="0.44"/>
  </g>

  <g fill="none" stroke-linecap="round">
    <path d="M770 188v62" stroke="#a7f3d0" stroke-width="30"/>
    <path d="M739 219h62" stroke="#a7f3d0" stroke-width="30"/>
    <path d="M254 754v42" stroke="#67e8f9" stroke-width="24" opacity="0.82"/>
    <path d="M233 775h42" stroke="#67e8f9" stroke-width="24" opacity="0.82"/>
  </g>
</svg>
