<svg xmlns="http://www.w3.org/2000/svg" width="1024" height="1024" viewBox="0 0 1024 1024" role="img" aria-labelledby="title desc">
  <title id="title">Djass logo</title>
  <desc id="desc">A rounded emerald app icon with a white D monogram and code prompt marks.</desc>
  <defs>
    <linearGradient id="badge" x1="190" y1="126" x2="850" y2="904" gradientUnits="userSpaceOnUse">
      <stop offset="0" stop-color="#022c22"/>
      <stop offset="0.48" stop-color="#047857"/>
      <stop offset="1" stop-color="#0891b2"/>
    </linearGradient>
    <linearGradient id="badgeHighlight" x1="246" y1="120" x2="784" y2="856" gradientUnits="userSpaceOnUse">
      <stop offset="0" stop-color="#34d399" stop-opacity="0.72"/>
      <stop offset="0.52" stop-color="#14b8a6" stop-opacity="0.18"/>
      <stop offset="1" stop-color="#0e7490" stop-opacity="0.38"/>
    </linearGradient>
    <linearGradient id="monogram" x1="310" y1="210" x2="764" y2="794" gradientUnits="userSpaceOnUse">
      <stop offset="0" stop-color="#ffffff"/>
      <stop offset="0.72" stop-color="#ecfeff"/>
      <stop offset="1" stop-color="#ccfbf1"/>
    </linearGradient>
  </defs>

  <rect x="64" y="64" width="896" height="896" rx="224" fill="url(#badge)"/>
  <rect x="84" y="84" width="856" height="856" rx="204" fill="url(#badgeHighlight)" opacity="0.58"/>

  <path
    fill="url(#monogram)"
    fill-rule="evenodd"
    d="M274 196h264c84 0 157 15 219 45 62 30 110 72 144 124 34 52 51 111 51 177s-17 125-51 177c-34 52-82 94-144 124-62 30-135 45-219 45H274V196Zm134 134v364h128c83 0 150-25 200-75 51-50 76-119 76-207s-25-157-76-207c-50-50-117-75-200-75H408Z"
  />

  <path
    d="M458 444 392 512l66 68"
    fill="none"
    stroke="#5eead4"
    stroke-width="44"
    stroke-linecap="round"
    stroke-linejoin="round"
  />
  <path
    d="M580 444 646 512l-66 68"
    fill="none"
    stroke="#22d3ee"
    stroke-width="44"
    stroke-linecap="round"
    stroke-linejoin="round"
  />
  <path
    d="m541 418-52 188"
    fill="none"
    stroke="#ecfeff"
    stroke-width="38"
    stroke-linecap="round"
    opacity="0.92"
  />

  <rect x="408" y="640" width="210" height="38" rx="19" fill="#a7f3d0" opacity="0.88"/>
  <rect x="408" y="690" width="126" height="34" rx="17" fill="#67e8f9" opacity="0.82"/>
  <circle cx="744" cy="302" r="26" fill="#67e8f9"/>
  <circle cx="806" cy="348" r="14" fill="#a7f3d0"/>
</svg>
